PathFileType	4	(X/Y/Z)	./motion_analysis/DM_ngait_tm_slow1_new.trc
DataRate	CameraRate	NumFrames	NumMarkers	Units	OrigDataRate	OrigDataStartFrame	OrigNumFrames
120	120	5	68	mm	120	1188	1585
Frame#	Time	Sternum			Neck			R_Shoulder			L_Shoulder			Xiphoid			Thoracic			R_Asis			L_Asis			R_Psis			L_Psis			Lumbar			R_Elbow			R_ElbowMedial			R_ShoulderAnterior			R_ShoulderPosterior			R_Wrist			R_Radius			R_Ulna			L_Elbow			L_ElbowMedial			L_ShoulderAnterior			L_ShoulderPosterior			L_Wrist			L_Ulna			L_Radius			L_Thigh_Superior			L_Thigh_Inferior			L_Thigh_Lateral			L_Knee_Lateral			L_Knee_Medial			L_Patella			L_Shank_Superior			L_Shank_Inferior			L_Shank_Lateral			L_Ankle_Lateral			L_Ankle_Medial			R_Thigh_Superior			R_Thigh_Inferior			R_Thigh_Lateral			R_Knee_Lateral			R_Knee_Medial			R_Patella			R_Shank_Superior			R_Shank_Inferior			R_Shank_Lateral			R_Ankle_Lateral			RankleMedial			R_Heel			R_Toe			R_Midfoot_Medial			R_Midfoot_Lateral			R_Hindfoot			R_Midfoot_Superior			R_ToeMedial			R_ToeLateral			L_Heel			L_Toe			L_Midfoot_Medial			L_Midfoot_Lateral			L_Hindfoot			L_Midfoot_Superior			L_ToeMedial			L_ToeLateral			Oglobal			Sacral			Xglobal			Yglobal			Zglobal			
		X1	Y1	Z1	X2	Y2	Z2	X3	Y3	Z3	X4	Y4	Z4	X5	Y5	Z5	X6	Y6	Z6	X7	Y7	Z7	X8	Y8	Z8	X9	Y9	Z9	X10	Y10	Z10	X11	Y11	Z11	X12	Y12	Z12	X13	Y13	Z13	X14	Y14	Z14	X15	Y15	Z15	X16	Y16	Z16	X17	Y17	Z17	X18	Y18	Z18	X19	Y19	Z19	X20	Y20	Z20	X21	Y21	Z21	X22	Y22	Z22	X23	Y23	Z23	X24	Y24	Z24	X25	Y25	Z25	X26	Y26	Z26	X27	Y27	Z27	X28	Y28	Z28	X29	Y29	Z29	X30	Y30	Z30	X31	Y31	Z31	X32	Y32	Z32	X33	Y33	Z33	X34	Y34	Z34	X35	Y35	Z35	X36	Y36	Z36	X37	Y37	Z37	X38	Y38	Z38	X39	Y39	Z39	X40	Y40	Z40	X41	Y41	Z41	X42	Y42	Z42	X43	Y43	Z43	X44	Y44	Z44	X45	Y45	Z45	X46	Y46	Z46	X47	Y47	Z47	X48	Y48	Z48	X49	Y49	Z49	X50	Y50	Z50	X51	Y51	Z51	X52	Y52	Z52	X53	Y53	Z53	X54	Y54	Z54	X55	Y55	Z55	X56	Y56	Z56	X57	Y57	Z57	X58	Y58	Z58	X59	Y59	Z59	X60	Y60	Z60	X61	Y61	Z61	X62	Y62	Z62	X63	Y63	Z63	X64	Y64	Z64	X65	Y65	Z65	X66	Y66	Z66	X67	Y67	Z67	X68	Y68	Z68	

1189	9.908333000000001	-845.0170000000001	1379.49	484.461	-699.349	1476.67	457.029	-805.943	1405.81	305.22	-733.11	1431.21	643.183	-850.148	1210.41	485.265	-592.749	1294.88	451.215	-770.1420000000001	987.64	341.717	-737.925	989.455	618.837	-561.378	1051.48	429.589	-554.399	1051.96	507.515	-565.559	1100.99	463.529	-780.379	1100.1	189.248	-0	0	0	-0	0	0	-0	0	0	-901.874	855.247	247.37	-883.365	869.122	289.121	-860.617	855.498	219.244	-663.473	1095.72	726.323	-0	0	0	-0	0	0	-0	0	0	-731.436	836.408	720.0940000000001	-684.225	842.48	726.971	-736.5839999999999	852.9640000000001	675.861	-685.378	829.966	657.059	-766.725	619.691	613.138	-787.728	713.872	586.2380000000001	-0	0	0	-0	0	0	-825.699	552.875	547.205	-766.016	472.769	619.5549999999999	-801.284	202.44	627.474	-824.327	334.698	555.558	-0	0	0	-0	0	0	-649.641	816.4450000000001	303.502	-627.731	600.905	337.898	-717.297	646.682	389.395	-0	0	0	-0	0	0	-683.658	501.787	410.157	-0	0	0	-508.582	208.396	331.099	-593.915	317.669	403.991	-0	0	0	-0	0	0	-403.324	77.35469999999999	381.444	-702.4930000000001	66.7698	360.581	-627.514	42.1518	417.718	-609.453	44.4143	301.869	-499.676	43.3459	320.864	-565.068	131.981	370.248	-671.492	54.944	406.391	-658.997	55.1106	313.856	-761.77	68.8852	573.371	-1051.36	129.155	596.971	-984.615	90.9165	541.397	-964.835	86.1097	654.054	-861.101	55.9454	637.548	-906.751	160.394	590.6180000000001	-1022.87	103.117	549.857	-1015.74	102.054	647.404	-0	0	0	-557.888	1051.72	468.552	-200	0	0	-0	0	200	-0	200	0	
1190	9.916667	-845.665	1378.45	487.118	-699.779	1475.63	460.086	-806.027	1405.11	307.859	-733.967	1429.79	646.045	-850.923	1209.37	487.305	-593.418	1293.71	454.274	-770.715	986.853	343.02	-739.561	988.08	620.265	-562.242	1050.4	431.795	-555.544	1050.57	509.741	-566.499	1099.77	465.845	-779.299	1099.62	191.532	-0	0	0	-0	0	0	-0	0	0	-899.1	853.616	248.42	-880.7089999999999	867.45	290.043	-857.95	854.285	220.242	-664.649	1094.15	728.765	-0	0	0	-0	0	0	-0	0	0	-732.249	834.75	722.1420000000001	-685.024	840.847	729.006	-737.5650000000001	851.384	678.103	-686.785	828.864	658.563	-769.168	618.489	613.7	-790.183	713.45	587.369	-0	0	0	-0	0	0	-827.691	551.443	547.343	-768.322	471.208	619.612	-799.561	200.319	627.284	-823.917	332.241	555.1130000000001	-0	0	0	-0	0	0	-649.729	815.933	304.691	-626.634	600.36	338.855	-716.533	645.836	390.108	-0	0	0	-0	0	0	-682.367	500.783	410.524	-0	0	0	-504.979	208.607	331.226	-591.274	317.168	404.155	-0	0	0	-0	0	0	-399.193	77.60550000000001	381.408	-698.271	66.7744	360.589	-623.3339999999999	42.1382	417.726	-605.284	44.3292	301.874	-495.461	43.353	320.823	-561.0069999999999	132.009	370.178	-667.299	54.9967	406.399	-654.765	55.1383	313.716	-758.804	69.2724	573.389	-1049.63	122.787	596.024	-981.979	85.77800000000001	540.4059999999999	-962.582	81.6529	653.158	-857.975	53.8295	637.2380000000001	-905.489	156.889	589.775	-1020.43	96.9815	549.242	-1013.86	96.7227	646.638	-0	0	0	-558.893	1050.48	470.768	-200	0	0	-0	0	200	-0	200	0	
1191	9.925000000000001	-846.193	1377.45	489.718	-700.196	1474.56	463.264	-806.063	1404.48	310.635	-734.944	1428.39	649.116	-851.763	1208.31	489.437	-593.9930000000001	1292.47	457.427	-771.269	986.172	344.239	-741.217	986.393	621.703	-563.136	1049.28	434.12	-556.748	1049.11	512.0650000000001	-567.466	1098.51	468.33	-778.1130000000001	1099.21	193.834	-0	0	0	-0	0	0	-0	0	0	-896.398	852.093	249.186	-878.192	865.78	291.135	-855.15	853.078	221.257	-665.895	1092.53	731.16	-0	0	0	-0	0	0	-0	0	0	-733.05	833.024	724.25	-685.824	839.196	730.933	-738.5359999999999	849.76	680.222	-688.73	827.0170000000001	659.734	-771.597	617.236	614.019	-793.011	712.755	588.574	-0	0	0	-0	0	0	-829.206	549.148	546.696	-770.439	469.422	619.502	-798.346	198.39	626.877	-823.643	329.694	554.458	-0	0	0	-0	0	0	-649.912	815.373	305.844	-625.696	599.913	339.634	-715.967	644.901	390.857	-0	0	0	-0	0	0	-681.213	499.732	410.837	-0	0	0	-501.473	208.833	331.363	-588.717	316.633	404.406	-0	0	0	-0	0	0	-395.115	77.8745	381.324	-694.091	66.7522	360.587	-619.203	42.2449	417.81	-601.205	44.222	301.946	-491.309	43.3635	320.842	-557.002	132.09	370.054	-663.0940000000001	54.8983	406.425	-650.582	55.1017	313.822	-755.823	69.89619999999999	573.529	-1047.83	116.371	595.091	-979.1900000000001	80.9302	539.577	-960.191	77.19889999999999	652.41	-854.77	51.7605	637.035	-904.438	153.723	589.3	-1017.74	91.1177	548.91	-1011.68	91.18640000000001	645.904	-0	0	0	-559.942	1049.2	473.093	-200	0	0	-0	0	200	-0	200	0	
1192	9.933332999999999	-846.792	1376.53	492.445	-700.533	1473.57	466.601	-806.058	1403.87	313.487	-735.9589999999999	1426.92	652.253	-852.569	1207.36	491.508	-594.75	1291.24	460.809	-771.4880000000001	985.228	345.881	-743.011	984.8680000000001	623.199	-563.846	1048.15	437.018	-557.994	1047.68	514.538	-568.3630000000001	1097.25	471.18	-776.859	1098.82	196.192	-0	0	0	-0	0	0	-0	0	0	-893.566	850.556	249.749	-875.447	864.184	291.711	-852.168	851.894	221.941	-667.073	1090.89	733.689	-0	0	0	-0	0	0	-0	0	0	-733.899	831.269	726.405	-686.673	837.481	732.957	-739.402	848.086	682.324	-691.236	825.187	660.549	-773.934	615.973	613.71	-796.22	711.783	589.712	-0	0	0	-0	0	0	-830.727	546.725	546.591	-772.441	467.546	619.598	-798.099	196.963	626.828	-823.547	327.48	554.068	-0	0	0	-0	0	0	-650.218	814.7809999999999	307.072	-624.984	599.283	340.543	-715.621	644.0069999999999	391.549	-0	0	0	-0	0	0	-680.3049999999999	498.478	411.36	-0	0	0	-498.078	209.16	331.492	-586.308	316.091	404.58	-0	0	0	-0	0	0	-391.097	78.3447	381.166	-689.875	66.8835	360.419	-615.076	42.2416	417.851	-597.152	44.0504	301.972	-487.099	43.4184	320.794	-553.072	132.133	369.897	-658.554	54.8913	406.463	-646.367	55.0782	313.813	-752.907	70.8241	573.703	-1046.17	109.149	594.163	-976.314	75.7139	538.586	-957.813	72.2193	651.509	-851.603	49.5311	636.788	-903.794	150.385	588.877	-1014.84	84.7633	548.349	-1009.43	84.8793	644.961	-0	0	0	-560.92	1047.92	475.778	-200	0	0	-0	0	200	-0	200	0	
1193	9.941667000000001	-847.426	1375.61	495.134	-700.91	1472.57	470.029	-806.053	1403.25	316.29	-737.032	1425.35	655.385	-853.388	1206.41	493.677	-595.554	1290.06	464.178	-772.032	984.417	347.223	-744.9	983.508	624.664	-564.79	1046.98	439.517	-559.265	1046.2	516.9880000000001	-569.373	1095.95	473.707	-775.489	1098.47	198.434	-0	0	0	-0	0	0	-0	0	0	-890.645	849.112	250.213	-872.684	862.59	292.33	-849.172	850.705	222.582	-668.312	1089.2	736.276	-0	0	0	-0	0	0	-0	0	0	-734.796	829.5170000000001	728.607	-687.568	835.745	735.098	-740.394	846.341	684.429	-694.168	823.625	661.0599999999999	-776.046	614.711	612.92	-799.7569999999999	710.631	590.817	-0	0	0	-0	0	0	-832.119	544.427	545.866	-774.228	466.059	620.077	-798.056	195.585	627.234	-823.5309999999999	325.797	553.925	-0	0	0	-0	0	0	-650.603	814.103	308.4	-624.458	598.785	341.472	-715.405	643.054	392.249	-0	0	0	-0	0	0	-679.524	497.347	411.879	-0	0	0	-494.713	209.591	331.544	-584.043	315.643	404.901	-0	0	0	-0	0	0	-387.009	78.904	381.118	-685.638	66.8233	360.295	-610.905	42.3514	417.874	-592.966	43.871	301.993	-482.839	43.4884	320.797	-549.189	132.281	369.665	-654.325	54.8727	406.42	-642.136	55.0106	313.741	-750.506	71.79219999999999	573.561	-1044.51	101.476	593.1849999999999	-973.92	70.3938	538.176	-955.46	67.221	651.116	-848.4059999999999	47.3466	636.5599999999999	-903.287	146.845	588.658	-1012.26	78.1028	547.458	-1007.24	78.11920000000001	644.061	-0	0	0	-562.027	1046.59	478.252	-200	0	0	-0	0	200	-0	200	0	
